STARTFONT 2.1
FONT -Fondu-Geneva-Medium-R-Normal--24-230-75-75-P-138-MacRoman-1
SIZE 23 75 75
FONTBOUNDINGBOX 23 28 -5 -6
COMMENT Created by Fondu from a mac NFNT/FONT resource
STARTPROPERTIES 17
FOUNDRY "Fondu"
FAMILY_NAME "Geneva"
WEIGHT_NAME "Medium"
SLANT "R"
SETWIDTH_NAME "Normal"
ADD_STYLE_NAME ""
PIXEL_SIZE 24
POINT_SIZE 230
RESOLUTION_X 75
RESOLUTION_Y 75
SPACING "P"
AVERAGE_WIDTH 138
CHARSET_REGISTRY "MacRoman"
CHARSET_ENCODING "1"
FONT_ASCENT 22
FONT_DESCENT 6
FACE_NAME "Geneva"
ENDPROPERTIES
CHARS 228
STARTCHAR eth
ENCODING 2
SWIDTH 500 0
DWIDTH 0 0
BBX 0 0 -1 -6
BITMAP
ENDCHAR
STARTCHAR Lslash
ENCODING 3
SWIDTH 500 0
DWIDTH 0 0
BBX 0 0 -1 -6
BITMAP
ENDCHAR
STARTCHAR lslash
ENCODING 4
SWIDTH 500 0
DWIDTH 0 0
BBX 0 0 -1 -6
BITMAP
ENDCHAR
STARTCHAR Scaron
ENCODING 5
SWIDTH 500 0
DWIDTH 0 0
BBX 0 0 -1 -6
BITMAP
ENDCHAR
STARTCHAR space
ENCODING 32
SWIDTH 333 0
DWIDTH 8 0
BBX 0 0 -1 -6
BITMAP
ENDCHAR
STARTCHAR exclam
ENCODING 33
SWIDTH 303 0
DWIDTH 6 0
BBX 2 18 2 0
BITMAP
C0
C0
C0
C0
C0
C0
C0
C0
C0
C0
C0
C0
C0
C0
00
00
C0
C0
ENDCHAR
STARTCHAR quotedbl
ENCODING 34
SWIDTH 500 0
DWIDTH 10 0
BBX 6 6 2 12
BITMAP
CC
CC
CC
CC
CC
CC
ENDCHAR
STARTCHAR numbersign
ENCODING 35
SWIDTH 667 0
DWIDTH 18 0
BBX 14 16 2 3
BITMAP
0318
0318
0630
0630
3FFC
3FFC
0C60
0C60
18C0
18C0
FFF0
FFF0
3180
3180
6300
6300
ENDCHAR
STARTCHAR dollar
ENCODING 36
SWIDTH 667 0
DWIDTH 14 0
BBX 12 22 1 -2
BITMAP
0600
0600
1F80
7FE0
6660
C600
C600
6600
7600
3F00
0FC0
06E0
0660
0630
0630
0630
C660
E6E0
7FC0
1F00
0600
0600
ENDCHAR
STARTCHAR percent
ENCODING 37
SWIDTH 905 0
DWIDTH 18 0
BBX 15 18 1 0
BITMAP
3806
7C0C
C618
C618
C630
C660
7CC0
38C0
0180
0300
0638
067C
0CC6
18C6
30C6
30C6
607C
C038
ENDCHAR
STARTCHAR ampersand
ENCODING 38
SWIDTH 727 0
DWIDTH 18 0
BBX 16 18 1 0
BITMAP
0E00
3F00
7380
6180
6180
7380
3F00
1E00
1E00
3F18
7398
61F8
C0F0
C070
C0F8
E1DC
7F8E
3F07
ENDCHAR
STARTCHAR quotesingle
ENCODING 39
SWIDTH 303 0
DWIDTH 6 0
BBX 2 6 2 12
BITMAP
C0
C0
C0
C0
C0
C0
ENDCHAR
STARTCHAR parenleft
ENCODING 40
SWIDTH 447 0
DWIDTH 10 0
BBX 5 20 2 -1
BITMAP
08
18
30
30
60
60
C0
C0
C0
C0
C0
C0
C0
C0
60
60
30
30
18
08
ENDCHAR
STARTCHAR parenright
ENCODING 41
SWIDTH 447 0
DWIDTH 10 0
BBX 5 20 2 -1
BITMAP
80
C0
60
60
30
30
18
18
18
18
18
18
18
18
30
30
60
60
C0
80
ENDCHAR
STARTCHAR asterisk
ENCODING 42
SWIDTH 508 0
DWIDTH 16 0
BBX 14 13 1 7
BITMAP
0300
0300
0300
4308
FB7C
7FF8
0FC0
0780
0FC0
1CE0
3870
7038
2010
ENDCHAR
STARTCHAR plus
ENCODING 43
SWIDTH 667 0
DWIDTH 14 0
BBX 10 10 2 4
BITMAP
0C00
0C00
0C00
0C00
FFC0
FFC0
0C00
0C00
0C00
0C00
ENDCHAR
STARTCHAR comma
ENCODING 44
SWIDTH 303 0
DWIDTH 8 0
BBX 3 6 2 -4
BITMAP
E0
E0
60
60
C0
80
ENDCHAR
STARTCHAR hyphen
ENCODING 45
SWIDTH 379 0
DWIDTH 14 0
BBX 10 2 2 8
BITMAP
FFC0
FFC0
ENDCHAR
STARTCHAR period
ENCODING 46
SWIDTH 303 0
DWIDTH 6 0
BBX 3 3 1 0
BITMAP
E0
E0
E0
ENDCHAR
STARTCHAR slash
ENCODING 47
SWIDTH 538 0
DWIDTH 14 0
BBX 10 18 2 0
BITMAP
00C0
00C0
0180
0180
0300
0300
0600
0600
0C00
0C00
1800
1800
3000
3000
6000
6000
C000
C000
ENDCHAR
STARTCHAR zero
ENCODING 48
SWIDTH 667 0
DWIDTH 16 0
BBX 12 18 2 0
BITMAP
0F00
3FC0
70E0
6060
C030
C030
C030
C030
C030
C030
C030
C030
C030
C030
6060
70E0
3FC0
0F00
ENDCHAR
STARTCHAR one
ENCODING 49
SWIDTH 667 0
DWIDTH 16 0
BBX 5 18 4 0
BITMAP
18
78
F8
D8
18
18
18
18
18
18
18
18
18
18
18
18
18
18
ENDCHAR
STARTCHAR two
ENCODING 50
SWIDTH 667 0
DWIDTH 16 0
BBX 12 18 2 0
BITMAP
0F80
3FC0
78E0
E070
C030
0030
0030
0070
01E0
03C0
0700
1E00
3800
7000
E000
C000
FFF0
FFF0
ENDCHAR
STARTCHAR three
ENCODING 51
SWIDTH 667 0
DWIDTH 16 0
BBX 12 18 2 0
BITMAP
1F00
7F80
E1C0
C0E0
0060
0060
00E0
0FC0
0FC0
00E0
0070
0030
0030
0030
C070
E1E0
7FC0
3F00
ENDCHAR
STARTCHAR four
ENCODING 52
SWIDTH 667 0
DWIDTH 16 0
BBX 14 18 1 0
BITMAP
0030
0070
00F0
01F0
03B0
0730
0630
0C30
1C30
3830
7030
FFFC
FFFC
0030
0030
0030
0030
0030
ENDCHAR
STARTCHAR five
ENCODING 53
SWIDTH 667 0
DWIDTH 16 0
BBX 12 18 2 0
BITMAP
7FE0
7FE0
6000
6000
6000
6000
6000
7F00
7FC0
01E0
0070
0030
0030
0030
C060
E0E0
7FC0
3F00
ENDCHAR
STARTCHAR six
ENCODING 54
SWIDTH 667 0
DWIDTH 16 0
BBX 12 18 2 0
BITMAP
0780
1FC0
38E0
7060
6000
C000
CF00
DFC0
F0E0
E060
C030
C030
C030
C030
6060
70E0
3FC0
0F00
ENDCHAR
STARTCHAR seven
ENCODING 55
SWIDTH 667 0
DWIDTH 16 0
BBX 12 18 2 0
BITMAP
FFF0
FFF0
0060
00C0
0180
0180
0300
0300
0300
0600
0600
0600
0600
0C00
0C00
0C00
0C00
0C00
ENDCHAR
STARTCHAR eight
ENCODING 56
SWIDTH 667 0
DWIDTH 16 0
BBX 12 18 2 0
BITMAP
0F00
3FC0
30C0
6060
6060
6060
30C0
1F80
3FC0
70E0
6060
C030
C030
C030
6060
70E0
3FC0
0F00
ENDCHAR
STARTCHAR nine
ENCODING 57
SWIDTH 667 0
DWIDTH 16 0
BBX 12 18 2 0
BITMAP
0F00
3FC0
70E0
6060
C030
C030
C030
C030
6070
70F0
3FF0
0F30
0030
0030
6060
70E0
3FC0
1F80
ENDCHAR
STARTCHAR colon
ENCODING 58
SWIDTH 303 0
DWIDTH 6 0
BBX 3 13 1 0
BITMAP
E0
E0
E0
00
00
00
00
00
00
00
E0
E0
E0
ENDCHAR
STARTCHAR semicolon
ENCODING 59
SWIDTH 303 0
DWIDTH 8 0
BBX 3 17 2 -4
BITMAP
E0
E0
E0
00
00
00
00
00
00
00
00
E0
E0
60
60
C0
80
ENDCHAR
STARTCHAR less
ENCODING 60
SWIDTH 667 0
DWIDTH 12 0
BBX 11 9 0 4
BITMAP
00E0
03C0
0F00
3C00
F000
3C00
0F00
03C0
00E0
ENDCHAR
STARTCHAR equal
ENCODING 61
SWIDTH 667 0
DWIDTH 14 0
BBX 10 6 2 6
BITMAP
FFC0
FFC0
0000
0000
FFC0
FFC0
ENDCHAR
STARTCHAR greater
ENCODING 62
SWIDTH 667 0
DWIDTH 12 0
BBX 11 9 0 4
BITMAP
E000
7800
1E00
0780
01E0
0780
1E00
7800
E000
ENDCHAR
STARTCHAR question
ENCODING 63
SWIDTH 568 0
DWIDTH 16 0
BBX 11 18 2 0
BITMAP
3F80
7FC0
E0E0
C060
C060
00E0
01C0
0380
0700
0E00
0C00
0C00
0C00
0C00
0000
0000
0C00
0C00
ENDCHAR
STARTCHAR at
ENCODING 64
SWIDTH 871 0
DWIDTH 20 0
BBX 17 18 1 -1
BITMAP
07E000
1FFC00
3C1E00
700700
61E300
E7F380
CE3980
CC1980
CC1980
CC1980
CC1980
CE3B80
E7FF00
63CE00
700000
3C0C00
1FFC00
03F000
ENDCHAR
STARTCHAR A
ENCODING 65
SWIDTH 727 0
DWIDTH 18 0
BBX 17 18 0 0
BITMAP
008000
01C000
01C000
036000
036000
063000
063000
0C1800
0C1800
180C00
180C00
1FFC00
3FFE00
300600
600300
600300
C00180
C00180
ENDCHAR
STARTCHAR B
ENCODING 66
SWIDTH 636 0
DWIDTH 16 0
BBX 14 18 1 0
BITMAP
FFE0
FFF0
C038
C018
C018
C018
C030
FFE0
FFF0
C038
C018
C00C
C00C
C00C
C018
C038
FFF0
FFC0
ENDCHAR
STARTCHAR C
ENCODING 67
SWIDTH 651 0
DWIDTH 16 0
BBX 13 18 1 0
BITMAP
07E0
1FF0
3838
7018
6000
E000
C000
C000
C000
C000
C000
C000
E000
6000
7018
3838
1FF0
07E0
ENDCHAR
STARTCHAR D
ENCODING 68
SWIDTH 701 0
DWIDTH 16 0
BBX 14 18 1 0
BITMAP
FF80
FFE0
C070
C038
C018
C01C
C00C
C00C
C00C
C00C
C00C
C00C
C01C
C018
C038
C070
FFE0
FF80
ENDCHAR
STARTCHAR E
ENCODING 69
SWIDTH 576 0
DWIDTH 14 0
BBX 11 18 1 0
BITMAP
FFE0
FFE0
C000
C000
C000
C000
C000
C000
FFC0
FFC0
C000
C000
C000
C000
C000
C000
FFE0
FFE0
ENDCHAR
STARTCHAR F
ENCODING 70
SWIDTH 553 0
DWIDTH 14 0
BBX 11 18 1 0
BITMAP
FFE0
FFE0
C000
C000
C000
C000
C000
C000
FF80
FF80
C000
C000
C000
C000
C000
C000
C000
C000
ENDCHAR
STARTCHAR G
ENCODING 71
SWIDTH 674 0
DWIDTH 16 0
BBX 14 18 1 0
BITMAP
07E0
1FF8
381C
700C
6000
E000
C000
C000
C1FC
C1FC
C00C
C00C
E00C
600C
700C
381C
1FF8
07E0
ENDCHAR
STARTCHAR H
ENCODING 72
SWIDTH 689 0
DWIDTH 16 0
BBX 13 18 1 0
BITMAP
C018
C018
C018
C018
C018
C018
C018
C018
FFF8
FFF8
C018
C018
C018
C018
C018
C018
C018
C018
ENDCHAR
STARTCHAR I
ENCODING 73
SWIDTH 242 0
DWIDTH 10 0
BBX 2 18 4 0
BITMAP
C0
C0
C0
C0
C0
C0
C0
C0
C0
C0
C0
C0
C0
C0
C0
C0
C0
C0
ENDCHAR
STARTCHAR J
ENCODING 74
SWIDTH 492 0
DWIDTH 14 0
BBX 12 18 0 0
BITMAP
0030
0030
0030
0030
0030
0030
0030
0030
0030
0030
0030
0030
C030
C030
E060
70E0
3FC0
0F00
ENDCHAR
STARTCHAR K
ENCODING 75
SWIDTH 663 0
DWIDTH 16 0
BBX 13 18 1 0
BITMAP
C070
C0E0
C1C0
C380
C700
CE00
DC00
F800
F000
F800
DC00
CE00
C700
C380
C1C0
C0E0
C070
C038
ENDCHAR
STARTCHAR L
ENCODING 76
SWIDTH 583 0
DWIDTH 14 0
BBX 11 18 1 0
BITMAP
C000
C000
C000
C000
C000
C000
C000
C000
C000
C000
C000
C000
C000
C000
C000
C000
FFE0
FFE0
ENDCHAR
STARTCHAR M
ENCODING 77
SWIDTH 788 0
DWIDTH 18 0
BBX 15 18 1 0
BITMAP
8002
C006
C006
E00E
F01E
F01E
D836
D836
CC66
CC66
C6C6
C6C6
C386
C386
C006
C006
C006
C006
ENDCHAR
STARTCHAR N
ENCODING 78
SWIDTH 708 0
DWIDTH 16 0
BBX 13 18 1 0
BITMAP
C018
E018
E018
F018
F018
D818
DC18
CC18
C618
C318
C398
C198
C0D8
C0D8
C078
C038
C038
C018
ENDCHAR
STARTCHAR O
ENCODING 79
SWIDTH 735 0
DWIDTH 16 0
BBX 15 18 0 0
BITMAP
07C0
1FF0
3838
701C
600C
600C
C006
C006
C006
C006
C006
C006
600C
600C
701C
3838
1FF0
07C0
ENDCHAR
STARTCHAR P
ENCODING 80
SWIDTH 583 0
DWIDTH 16 0
BBX 12 18 2 0
BITMAP
FF00
FFC0
C0E0
C060
C030
C030
C030
C060
C0E0
FFC0
FF00
C000
C000
C000
C000
C000
C000
C000
ENDCHAR
STARTCHAR Q
ENCODING 81
SWIDTH 735 0
DWIDTH 16 0
BBX 15 22 0 -4
BITMAP
07C0
1FF0
3838
701C
600C
600C
C006
C006
C006
C006
C006
C006
600C
600C
701C
3838
1FF0
07C0
0180
00E0
007E
001E
ENDCHAR
STARTCHAR R
ENCODING 82
SWIDTH 606 0
DWIDTH 16 0
BBX 12 18 2 0
BITMAP
FF00
FFC0
C0E0
C060
C030
C030
C030
C060
C0E0
FFC0
FF80
C180
C1C0
C0C0
C0E0
C060
C070
C030
ENDCHAR
STARTCHAR S
ENCODING 83
SWIDTH 606 0
DWIDTH 16 0
BBX 12 18 2 0
BITMAP
0F00
3FC0
70E0
6060
C000
C000
6000
7800
1F00
07C0
00E0
0070
0030
0030
C060
E0E0
7FC0
1F00
ENDCHAR
STARTCHAR T
ENCODING 84
SWIDTH 640 0
DWIDTH 16 0
BBX 14 18 1 0
BITMAP
FFFC
FFFC
0300
0300
0300
0300
0300
0300
0300
0300
0300
0300
0300
0300
0300
0300
0300
0300
ENDCHAR
STARTCHAR U
ENCODING 85
SWIDTH 667 0
DWIDTH 16 0
BBX 12 18 2 0
BITMAP
C030
C030
C030
C030
C030
C030
C030
C030
C030
C030
C030
C030
C030
C030
6060
70E0
3FC0
0F00
ENDCHAR
STARTCHAR V
ENCODING 86
SWIDTH 727 0
DWIDTH 18 0
BBX 15 18 1 0
BITMAP
C006
C006
600C
600C
600C
3018
3018
3018
1830
1830
1830
0C60
0C60
0C60
06C0
06C0
0380
0380
ENDCHAR
STARTCHAR W
ENCODING 87
SWIDTH 947 0
DWIDTH 22 0
BBX 21 18 1 0
BITMAP
C02018
C07018
C07018
607030
60D830
60D830
30D860
30D860
318C60
198CC0
198CC0
198CC0
0F0780
0F0780
0F0780
060300
060300
060300
ENDCHAR
STARTCHAR X
ENCODING 88
SWIDTH 610 0
DWIDTH 14 0
BBX 13 18 0 0
BITMAP
C018
C018
6030
3060
3060
18C0
0D80
0D80
0700
0700
0D80
0D80
18C0
3060
3060
6030
C018
C018
ENDCHAR
STARTCHAR Y
ENCODING 89
SWIDTH 610 0
DWIDTH 14 0
BBX 14 18 0 0
BITMAP
C00C
C00C
6018
6018
3030
1860
1860
0CC0
0780
0780
0300
0300
0300
0300
0300
0300
0300
0300
ENDCHAR
STARTCHAR Z
ENCODING 90
SWIDTH 576 0
DWIDTH 14 0
BBX 12 18 1 0
BITMAP
FFF0
FFF0
0060
0060
00C0
0180
0180
0300
0600
0600
0C00
1800
1800
3000
6000
6000
FFF0
FFF0
ENDCHAR
STARTCHAR bracketleft
ENCODING 91
SWIDTH 447 0
DWIDTH 8 0
BBX 5 22 1 -2
BITMAP
F8
F8
C0
C0
C0
C0
C0
C0
C0
C0
C0
C0
C0
C0
C0
C0
C0
C0
C0
C0
F8
F8
ENDCHAR
STARTCHAR backslash
ENCODING 92
SWIDTH 538 0
DWIDTH 14 0
BBX 11 20 1 0
BITMAP
C000
C000
6000
6000
3000
3000
1800
1800
0C00
0C00
0600
0600
0300
0300
0180
0180
00C0
00C0
0060
0060
ENDCHAR
STARTCHAR bracketright
ENCODING 93
SWIDTH 447 0
DWIDTH 8 0
BBX 5 22 1 -2
BITMAP
F8
F8
18
18
18
18
18
18
18
18
18
18
18
18
18
18
18
18
18
18
F8
F8
ENDCHAR
STARTCHAR asciicircum
ENCODING 94
SWIDTH 667 0
DWIDTH 8 0
BBX 9 9 -1 10
BITMAP
0800
1C00
1C00
3600
3600
6300
6300
C180
C180
ENDCHAR
STARTCHAR underscore
ENCODING 95
SWIDTH 667 0
DWIDTH 16 0
BBX 16 2 0 0
BITMAP
FFFF
FFFF
ENDCHAR
STARTCHAR grave
ENCODING 96
SWIDTH 591 0
DWIDTH 8 0
BBX 4 5 2 15
BITMAP
80
C0
60
30
10
ENDCHAR
STARTCHAR a
ENCODING 97
SWIDTH 553 0
DWIDTH 14 0
BBX 11 13 1 0
BITMAP
1F80
7FC0
E0E0
C060
0060
07E0
3FE0
7860
E060
C0E0
E3E0
7F60
3C60
ENDCHAR
STARTCHAR b
ENCODING 98
SWIDTH 610 0
DWIDTH 14 0
BBX 12 18 1 0
BITMAP
C000
C000
C000
C000
C000
CF80
DFC0
F0E0
E060
C030
C030
C030
C030
C030
E060
F0E0
DFC0
CF80
ENDCHAR
STARTCHAR c
ENCODING 99
SWIDTH 545 0
DWIDTH 14 0
BBX 10 13 2 0
BITMAP
1F80
3FC0
70C0
6000
C000
C000
C000
C000
C000
6000
70C0
3FC0
1F80
ENDCHAR
STARTCHAR d
ENCODING 100
SWIDTH 602 0
DWIDTH 14 0
BBX 12 18 1 0
BITMAP
0030
0030
0030
0030
0030
1F30
3FB0
70F0
6070
C030
C030
C030
C030
C030
6070
70F0
3FB0
1F30
ENDCHAR
STARTCHAR e
ENCODING 101
SWIDTH 576 0
DWIDTH 14 0
BBX 11 13 1 0
BITMAP
0F00
3FC0
70C0
6060
C060
FFE0
FFE0
C000
C000
6060
70E0
3FC0
0F00
ENDCHAR
STARTCHAR f
ENCODING 102
SWIDTH 390 0
DWIDTH 12 0
BBX 9 18 2 0
BITMAP
0780
0F80
1C00
1800
1800
FF80
FF80
1800
1800
1800
1800
1800
1800
1800
1800
1800
1800
1800
ENDCHAR
STARTCHAR g
ENCODING 103
SWIDTH 610 0
DWIDTH 14 0
BBX 12 18 1 -5
BITMAP
1F30
3FB0
70F0
6070
C030
C030
C030
C030
C030
6070
70F0
3FB0
1F30
0030
C060
E0E0
7FC0
1F80
ENDCHAR
STARTCHAR h
ENCODING 104
SWIDTH 583 0
DWIDTH 14 0
BBX 11 18 1 0
BITMAP
C000
C000
C000
C000
C000
CF00
DFC0
F0E0
E060
C060
C060
C060
C060
C060
C060
C060
C060
C060
ENDCHAR
STARTCHAR i
ENCODING 105
SWIDTH 235 0
DWIDTH 10 0
BBX 2 17 4 0
BITMAP
C0
C0
00
00
C0
C0
C0
C0
C0
C0
C0
C0
C0
C0
C0
C0
C0
ENDCHAR
STARTCHAR j
ENCODING 106
SWIDTH 276 0
DWIDTH 12 0
BBX 6 23 2 -6
BITMAP
0C
0C
00
00
0C
0C
0C
0C
0C
0C
0C
0C
0C
0C
0C
0C
0C
0C
0C
0C
1C
F8
F0
ENDCHAR
STARTCHAR k
ENCODING 107
SWIDTH 538 0
DWIDTH 14 0
BBX 11 17 2 0
BITMAP
C000
C000
C000
C000
C380
C700
CE00
DC00
F800
F000
F800
DC00
CE00
C700
C380
C1C0
C0E0
ENDCHAR
STARTCHAR l
ENCODING 108
SWIDTH 235 0
DWIDTH 10 0
BBX 2 17 4 0
BITMAP
C0
C0
C0
C0
C0
C0
C0
C0
C0
C0
C0
C0
C0
C0
C0
C0
C0
ENDCHAR
STARTCHAR m
ENCODING 109
SWIDTH 894 0
DWIDTH 22 0
BBX 18 13 2 0
BITMAP
CF1F00
DFBF80
F1E1C0
E0C0C0
C0C0C0
C0C0C0
C0C0C0
C0C0C0
C0C0C0
C0C0C0
C0C0C0
C0C0C0
C0C0C0
ENDCHAR
STARTCHAR n
ENCODING 110
SWIDTH 583 0
DWIDTH 14 0
BBX 10 13 2 0
BITMAP
DF00
FF80
E1C0
C0C0
C0C0
C0C0
C0C0
C0C0
C0C0
C0C0
C0C0
C0C0
C0C0
ENDCHAR
STARTCHAR o
ENCODING 111
SWIDTH 606 0
DWIDTH 14 0
BBX 10 13 2 0
BITMAP
1E00
3F00
7380
6180
C0C0
C0C0
C0C0
C0C0
C0C0
6180
7380
3F00
1E00
ENDCHAR
STARTCHAR p
ENCODING 112
SWIDTH 602 0
DWIDTH 14 0
BBX 10 17 2 -4
BITMAP
DE00
FF00
E380
C180
C0C0
C0C0
C0C0
C0C0
C0C0
C180
E380
FF00
DE00
C000
C000
C000
C000
ENDCHAR
STARTCHAR q
ENCODING 113
SWIDTH 602 0
DWIDTH 14 0
BBX 10 17 2 -4
BITMAP
1EC0
3FC0
71C0
60C0
C0C0
C0C0
C0C0
C0C0
C0C0
60C0
71C0
3FC0
1EC0
00C0
00C0
00C0
00C0
ENDCHAR
STARTCHAR r
ENCODING 114
SWIDTH 386 0
DWIDTH 12 0
BBX 8 13 2 0
BITMAP
CF
DF
F0
E0
C0
C0
C0
C0
C0
C0
C0
C0
C0
ENDCHAR
STARTCHAR s
ENCODING 115
SWIDTH 509 0
DWIDTH 14 0
BBX 10 13 2 0
BITMAP
3F00
7F80
E1C0
C000
E000
7F00
3F80
01C0
00C0
00C0
E1C0
7F80
3F00
ENDCHAR
STARTCHAR t
ENCODING 116
SWIDTH 443 0
DWIDTH 12 0
BBX 8 16 2 0
BITMAP
30
30
30
FE
FE
30
30
30
30
30
30
30
30
38
1F
0F
ENDCHAR
STARTCHAR u
ENCODING 117
SWIDTH 583 0
DWIDTH 14 0
BBX 11 13 2 0
BITMAP
C060
C060
C060
C060
C060
C060
C060
C060
C060
C0E0
E1E0
7F60
1E60
ENDCHAR
STARTCHAR v
ENCODING 118
SWIDTH 564 0
DWIDTH 14 0
BBX 13 13 0 0
BITMAP
C018
6030
6030
6030
3060
3060
18C0
18C0
18C0
0D80
0D80
0700
0700
ENDCHAR
STARTCHAR w
ENCODING 119
SWIDTH 780 0
DWIDTH 22 0
BBX 19 13 1 0
BITMAP
C0E060
C0E060
60E0C0
61B0C0
61B0C0
31B180
31B180
331980
1B1B00
1B1B00
1B1B00
0E0E00
0E0E00
ENDCHAR
STARTCHAR x
ENCODING 120
SWIDTH 530 0
DWIDTH 14 0
BBX 12 13 1 0
BITMAP
C030
E070
70E0
30C0
1980
0F00
0600
0F00
1980
30C0
70E0
E070
C030
ENDCHAR
STARTCHAR y
ENCODING 121
SWIDTH 572 0
DWIDTH 14 0
BBX 13 18 0 -5
BITMAP
C018
C018
6030
6030
3060
3060
18C0
18C0
0D80
0D80
0700
0700
0600
0600
0C00
0C00
F800
F000
ENDCHAR
STARTCHAR z
ENCODING 122
SWIDTH 553 0
DWIDTH 14 0
BBX 12 13 1 0
BITMAP
FFF0
FFF0
00E0
01C0
0380
0700
0E00
1C00
3800
7000
E000
FFF0
FFF0
ENDCHAR
STARTCHAR braceleft
ENCODING 123
SWIDTH 451 0
DWIDTH 10 0
BBX 6 23 2 -2
BITMAP
0C
1C
38
30
30
30
18
18
18
18
30
E0
30
18
18
18
18
30
30
30
38
1C
0C
ENDCHAR
STARTCHAR bar
ENCODING 124
SWIDTH 246 0
DWIDTH 6 0
BBX 2 20 2 -1
BITMAP
C0
C0
C0
C0
C0
C0
C0
C0
C0
C0
C0
C0
C0
C0
C0
C0
C0
C0
C0
C0
ENDCHAR
STARTCHAR braceright
ENCODING 125
SWIDTH 451 0
DWIDTH 10 0
BBX 6 23 2 -2
BITMAP
C0
E0
70
30
30
30
60
60
60
60
30
1C
30
60
60
60
60
30
30
30
70
E0
C0
ENDCHAR
STARTCHAR asciitilde
ENCODING 126
SWIDTH 667 0
DWIDTH 16 0
BBX 12 4 2 5
BITMAP
3810
7E30
C7E0
81C0
ENDCHAR
STARTCHAR char007f
ENCODING 127
SWIDTH 500 0
DWIDTH 0 0
BBX 0 0 -1 -6
BITMAP
ENDCHAR
STARTCHAR Adieresis
ENCODING 128
SWIDTH 727 0
DWIDTH 18 0
BBX 17 22 0 0
BITMAP
066000
066000
000000
000000
008000
01C000
01C000
036000
036000
063000
063000
0C1800
0C1800
180C00
180C00
1FFC00
3FFE00
300600
600300
600300
C00180
C00180
ENDCHAR
STARTCHAR Aring
ENCODING 129
SWIDTH 727 0
DWIDTH 18 0
BBX 17 22 0 0
BITMAP
01C000
036000
022000
036000
01C000
01C000
01C000
036000
036000
063000
063000
0C1800
0C1800
180C00
180C00
1FFC00
3FFE00
300600
600300
600300
C00180
C00180
ENDCHAR
STARTCHAR Ccedilla
ENCODING 130
SWIDTH 651 0
DWIDTH 16 0
BBX 13 23 1 -5
BITMAP
07E0
1FF0
3838
7018
6000
E000
C000
C000
C000
C000
C000
C000
E000
6000
7018
3838
1FF0
07E0
0200
0700
0180
0180
0700
ENDCHAR
STARTCHAR Eacute
ENCODING 131
SWIDTH 576 0
DWIDTH 14 0
BBX 11 22 1 0
BITMAP
0300
0600
0C00
0000
FFE0
FFE0
C000
C000
C000
C000
C000
C000
FFC0
FFC0
C000
C000
C000
C000
C000
C000
FFE0
FFE0
ENDCHAR
STARTCHAR Ntilde
ENCODING 132
SWIDTH 708 0
DWIDTH 16 0
BBX 13 22 1 0
BITMAP
1C40
3FC0
2380
0000
C018
E018
E018
F018
F018
D818
DC18
CC18
C618
C318
C398
C198
C0D8
C0D8
C078
C038
C038
C018
ENDCHAR
STARTCHAR Odieresis
ENCODING 133
SWIDTH 735 0
DWIDTH 16 0
BBX 15 22 0 0
BITMAP
0CC0
0CC0
0000
0000
07C0
1FF0
3838
701C
600C
600C
C006
C006
C006
C006
C006
C006
600C
600C
701C
3838
1FF0
07C0
ENDCHAR
STARTCHAR Udieresis
ENCODING 134
SWIDTH 667 0
DWIDTH 16 0
BBX 12 22 2 0
BITMAP
1980
1980
0000
0000
C030
C030
C030
C030
C030
C030
C030
C030
C030
C030
C030
C030
C030
C030
6060
70E0
3FC0
0F00
ENDCHAR
STARTCHAR aacute
ENCODING 135
SWIDTH 553 0
DWIDTH 14 0
BBX 11 19 1 0
BITMAP
0180
0300
0600
0C00
0000
0000
1F80
7FC0
E0E0
C060
0060
07E0
3FE0
7860
E060
C0E0
E3E0
7F60
3C60
ENDCHAR
STARTCHAR agrave
ENCODING 136
SWIDTH 553 0
DWIDTH 14 0
BBX 11 19 1 0
BITMAP
1800
0C00
0600
0300
0000
0000
1F80
7FC0
E0E0
C060
0060
07E0
3FE0
7860
E060
C0E0
E3E0
7F60
3C60
ENDCHAR
STARTCHAR acircumflex
ENCODING 137
SWIDTH 553 0
DWIDTH 14 0
BBX 11 19 1 0
BITMAP
0400
0E00
1B00
3180
0000
0000
1F80
7FC0
E0E0
C060
0060
07E0
3FE0
7860
E060
C0E0
E3E0
7F60
3C60
ENDCHAR
STARTCHAR adieresis
ENCODING 138
SWIDTH 553 0
DWIDTH 14 0
BBX 11 17 1 0
BITMAP
3180
3180
0000
0000
1F80
7FC0
E0E0
C060
0060
07E0
3FE0
7860
E060
C0E0
E3E0
7F60
3C60
ENDCHAR
STARTCHAR atilde
ENCODING 139
SWIDTH 553 0
DWIDTH 14 0
BBX 11 18 1 0
BITMAP
1C40
3FC0
2380
0000
0000
1F80
7FC0
E0E0
C060
0060
07E0
3FE0
7860
E060
C0E0
E3E0
7F60
3C60
ENDCHAR
STARTCHAR aring
ENCODING 140
SWIDTH 553 0
DWIDTH 14 0
BBX 11 19 1 0
BITMAP
0700
0D80
0880
0D80
0700
0000
1F80
7FC0
E0E0
C060
0060
07E0
3FE0
7860
E060
C0E0
E3E0
7F60
3C60
ENDCHAR
STARTCHAR ccedilla
ENCODING 141
SWIDTH 545 0
DWIDTH 14 0
BBX 11 18 2 -5
BITMAP
0F00
3FC0
70E0
6060
C000
C000
C000
C000
C000
6060
70E0
3FC0
0F00
0400
0E00
0300
0300
0E00
ENDCHAR
STARTCHAR eacute
ENCODING 142
SWIDTH 576 0
DWIDTH 14 0
BBX 11 19 1 0
BITMAP
0180
0300
0600
0C00
0000
0000
0F00
3FC0
70C0
6060
C060
FFE0
FFE0
C000
C000
6060
70E0
3FC0
0F00
ENDCHAR
STARTCHAR egrave
ENCODING 143
SWIDTH 576 0
DWIDTH 14 0
BBX 11 19 1 0
BITMAP
1800
0C00
0600
0300
0000
0000
0F00
3FC0
70C0
6060
C060
FFE0
FFE0
C000
C000
6060
70E0
3FC0
0F00
ENDCHAR
STARTCHAR ecircumflex
ENCODING 144
SWIDTH 576 0
DWIDTH 14 0
BBX 11 19 1 0
BITMAP
0600
0F00
1980
30C0
0000
0000
0F00
3FC0
70C0
6060
C060
FFE0
FFE0
C000
C000
6060
70E0
3FC0
0F00
ENDCHAR
STARTCHAR edieresis
ENCODING 145
SWIDTH 576 0
DWIDTH 14 0
BBX 11 17 1 0
BITMAP
3180
3180
0000
0000
0F00
3FC0
70C0
6060
C060
FFE0
FFE0
C000
C000
6060
70E0
3FC0
0F00
ENDCHAR
STARTCHAR iacute
ENCODING 146
SWIDTH 235 0
DWIDTH 10 0
BBX 5 19 3 0
BITMAP
18
30
60
C0
00
00
60
60
60
60
60
60
60
60
60
60
60
60
60
ENDCHAR
STARTCHAR igrave
ENCODING 147
SWIDTH 235 0
DWIDTH 10 0
BBX 5 19 2 0
BITMAP
C0
60
30
18
00
00
30
30
30
30
30
30
30
30
30
30
30
30
30
ENDCHAR
STARTCHAR icircumflex
ENCODING 148
SWIDTH 235 0
DWIDTH 10 0
BBX 8 19 1 0
BITMAP
18
3C
66
C3
00
00
18
18
18
18
18
18
18
18
18
18
18
18
18
ENDCHAR
STARTCHAR idieresis
ENCODING 149
SWIDTH 235 0
DWIDTH 10 0
BBX 6 17 2 0
BITMAP
CC
CC
00
00
30
30
30
30
30
30
30
30
30
30
30
30
30
ENDCHAR
STARTCHAR ntilde
ENCODING 150
SWIDTH 583 0
DWIDTH 14 0
BBX 11 18 1 0
BITMAP
1C40
3FC0
2380
0000
0000
CF00
DFC0
F0E0
E060
C060
C060
C060
C060
C060
C060
C060
C060
C060
ENDCHAR
STARTCHAR oacute
ENCODING 151
SWIDTH 606 0
DWIDTH 14 0
BBX 12 19 1 0
BITMAP
0180
0300
0600
0C00
0000
0000
0F00
3FC0
70E0
6060
C030
C030
C030
C030
C030
6060
70E0
3FC0
0F00
ENDCHAR
STARTCHAR ograve
ENCODING 152
SWIDTH 606 0
DWIDTH 14 0
BBX 12 19 1 0
BITMAP
1800
0C00
0600
0300
0000
0000
0F00
3FC0
70E0
6060
C030
C030
C030
C030
C030
6060
70E0
3FC0
0F00
ENDCHAR
STARTCHAR ocircumflex
ENCODING 153
SWIDTH 606 0
DWIDTH 14 0
BBX 12 19 1 0
BITMAP
0600
0F00
1980
30C0
0000
0000
0F00
3FC0
70E0
6060
C030
C030
C030
C030
C030
6060
70E0
3FC0
0F00
ENDCHAR
STARTCHAR odieresis
ENCODING 154
SWIDTH 606 0
DWIDTH 14 0
BBX 12 17 1 0
BITMAP
30C0
30C0
0000
0000
0F00
3FC0
70E0
6060
C030
C030
C030
C030
C030
6060
70E0
3FC0
0F00
ENDCHAR
STARTCHAR otilde
ENCODING 155
SWIDTH 606 0
DWIDTH 14 0
BBX 12 18 1 0
BITMAP
1C40
3FC0
2380
0000
0000
0F00
3FC0
70E0
6060
C030
C030
C030
C030
C030
6060
70E0
3FC0
0F00
ENDCHAR
STARTCHAR uacute
ENCODING 156
SWIDTH 583 0
DWIDTH 14 0
BBX 11 19 2 0
BITMAP
0300
0600
0C00
1800
0000
0000
C060
C060
C060
C060
C060
C060
C060
C060
C060
C0E0
E1E0
7F60
1E60
ENDCHAR
STARTCHAR ugrave
ENCODING 157
SWIDTH 583 0
DWIDTH 14 0
BBX 11 19 2 0
BITMAP
3000
1800
0C00
0600
0000
0000
C060
C060
C060
C060
C060
C060
C060
C060
C060
C0E0
E1E0
7F60
1E60
ENDCHAR
STARTCHAR ucircumflex
ENCODING 158
SWIDTH 583 0
DWIDTH 14 0
BBX 11 19 2 0
BITMAP
0400
0E00
1B00
3180
0000
0000
C060
C060
C060
C060
C060
C060
C060
C060
C060
C0E0
E1E0
7F60
1E60
ENDCHAR
STARTCHAR udieresis
ENCODING 159
SWIDTH 583 0
DWIDTH 14 0
BBX 11 17 2 0
BITMAP
3180
3180
0000
0000
C060
C060
C060
C060
C060
C060
C060
C060
C060
C0E0
E1E0
7F60
1E60
ENDCHAR
STARTCHAR dagger
ENCODING 160
SWIDTH 667 0
DWIDTH 10 0
BBX 10 17 0 1
BITMAP
0C00
0C00
0C00
FFC0
FFC0
0C00
0C00
0C00
0C00
0C00
0C00
0C00
0C00
0C00
0C00
0C00
0C00
ENDCHAR
STARTCHAR degree
ENCODING 161
SWIDTH 341 0
DWIDTH 12 0
BBX 7 7 2 12
BITMAP
38
7C
C6
C6
C6
7C
38
ENDCHAR
STARTCHAR cent
ENCODING 162
SWIDTH 667 0
DWIDTH 14 0
BBX 10 18 2 0
BITMAP
0600
0600
1F80
3FC0
76C0
6600
C600
C600
C600
C600
C600
C600
6600
76C0
3FC0
1F80
0600
0600
ENDCHAR
STARTCHAR sterling
ENCODING 163
SWIDTH 667 0
DWIDTH 16 0
BBX 13 18 1 0
BITMAP
01F0
03F0
0700
0600
0E00
0C00
0C00
0C00
7F80
7F80
1800
1800
1800
3800
3000
7000
FFF8
FFF8
ENDCHAR
STARTCHAR section
ENCODING 164
SWIDTH 667 0
DWIDTH 16 0
BBX 13 22 1 -4
BITMAP
1FC0
7FF0
6038
C018
C000
E000
7800
3F00
67C0
C0F0
C038
F018
7E18
1FB0
03E0
00F0
0038
0018
C018
E030
7FF0
1FC0
ENDCHAR
STARTCHAR bullet
ENCODING 165
SWIDTH 667 0
DWIDTH 16 0
BBX 10 10 3 2
BITMAP
1E00
7F80
7F80
FFC0
FFC0
FFC0
FFC0
7F80
7F80
1E00
ENDCHAR
STARTCHAR paragraph
ENCODING 166
SWIDTH 667 0
DWIDTH 16 0
BBX 14 22 1 -4
BITMAP
0FFC
3FFC
7F30
7F30
FF30
FF30
FF30
7F30
7F30
3F30
0F30
0330
0330
0330
0330
0330
0330
0330
0330
0330
0330
0330
ENDCHAR
STARTCHAR germandbls
ENCODING 167
SWIDTH 591 0
DWIDTH 18 0
BBX 12 18 3 0
BITMAP
1F00
3F80
71C0
E0C0
C0C0
C1C0
C380
C700
C600
C700
C3C0
C1E0
C070
C030
C030
C070
CFE0
CFC0
ENDCHAR
STARTCHAR registered
ENCODING 168
SWIDTH 879 0
DWIDTH 20 0
BBX 17 17 1 -1
BITMAP
07F000
1FFC00
380E00
700700
67E300
C7F180
C63180
C67180
C7E180
C7C180
C6E180
C67180
663300
700700
380E00
1FFC00
07F000
ENDCHAR
STARTCHAR copyright
ENCODING 169
SWIDTH 879 0
DWIDTH 20 0
BBX 17 17 1 -1
BITMAP
07F000
1FFC00
380E00
700700
61E300
C3F180
C73180
C60180
C60180
C60180
C73180
C3F180
61E300
700700
380E00
1FFC00
07F000
ENDCHAR
STARTCHAR trademark
ENCODING 170
SWIDTH 758 0
DWIDTH 22 0
BBX 17 9 2 9
BITMAP
FD8180
FDC380
31E780
31BD80
319980
318180
318180
318180
318180
ENDCHAR
STARTCHAR acute
ENCODING 171
SWIDTH 591 0
DWIDTH 8 0
BBX 4 5 2 15
BITMAP
10
30
60
C0
80
ENDCHAR
STARTCHAR dieresis
ENCODING 172
SWIDTH 591 0
DWIDTH 10 0
BBX 6 2 2 16
BITMAP
CC
CC
ENDCHAR
STARTCHAR notequal
ENCODING 173
SWIDTH 667 0
DWIDTH 16 0
BBX 10 10 3 4
BITMAP
00C0
0180
FFC0
FFC0
0E00
1C00
FFC0
FFC0
6000
C000
ENDCHAR
STARTCHAR AE
ENCODING 174
SWIDTH 992 0
DWIDTH 24 0
BBX 22 18 1 0
BITMAP
007FFC
00FFFC
00D800
01D800
019800
039800
031800
071800
07FFF8
0FFFF8
0C1800
1C1800
181800
381800
301800
701800
601FFC
E01FFC
ENDCHAR
STARTCHAR Oslash
ENCODING 175
SWIDTH 735 0
DWIDTH 16 0
BBX 15 18 0 0
BITMAP
07C6
1FFC
3838
701C
603C
606C
C0C6
C0C6
C186
C306
C606
C606
6C0C
780C
701C
3838
7FF0
C7C0
ENDCHAR
STARTCHAR infinity
ENCODING 176
SWIDTH 667 0
DWIDTH 22 0
BBX 19 9 1 3
BITMAP
3C0780
7F1FC0
63B8C0
C1F060
C0E060
C1F060
63B8C0
7F1FC0
3C0780
ENDCHAR
STARTCHAR plusminus
ENCODING 177
SWIDTH 667 0
DWIDTH 14 0
BBX 10 14 2 0
BITMAP
0C00
0C00
0C00
0C00
FFC0
FFC0
0C00
0C00
0C00
0C00
0000
0000
FFC0
FFC0
ENDCHAR
STARTCHAR lessequal
ENCODING 178
SWIDTH 667 0
DWIDTH 12 0
BBX 11 13 0 0
BITMAP
00E0
03C0
0F00
3C00
F000
3C00
0F00
03C0
00E0
0000
0000
7FE0
7FE0
ENDCHAR
STARTCHAR greaterequal
ENCODING 179
SWIDTH 667 0
DWIDTH 12 0
BBX 11 13 1 0
BITMAP
E000
7800
1E00
0780
01E0
0780
1E00
7800
E000
0000
0000
FFC0
FFC0
ENDCHAR
STARTCHAR yen
ENCODING 180
SWIDTH 667 0
DWIDTH 14 0
BBX 14 18 0 0
BITMAP
C00C
C00C
6018
6018
3030
1860
1860
0CC0
0780
7FF8
7FF8
0300
0300
7FF8
7FF8
0300
0300
0300
ENDCHAR
STARTCHAR mu
ENCODING 181
SWIDTH 591 0
DWIDTH 18 0
BBX 15 18 1 -4
BITMAP
0C06
0C06
0C06
1C0E
180C
180C
180C
381C
3018
3018
3838
3CF8
7FF0
67B0
6000
6000
C000
C000
ENDCHAR
STARTCHAR partialdiff
ENCODING 182
SWIDTH 651 0
DWIDTH 14 0
BBX 12 17 1 0
BITMAP
1C00
0F00
0380
01C0
00C0
0060
03E0
0FF0
3C70
7030
6030
C030
C060
C060
E1C0
7F80
3E00
ENDCHAR
STARTCHAR summation
ENCODING 183
SWIDTH 606 0
DWIDTH 16 0
BBX 12 24 2 -6
BITMAP
FFF0
FFF0
E000
7000
3800
1C00
0E00
0600
0700
0380
01C0
0180
0380
0700
0600
0E00
1C00
1800
3800
7000
6000
E000
FFF0
FFF0
ENDCHAR
STARTCHAR product
ENCODING 184
SWIDTH 803 0
DWIDTH 18 0
BBX 14 24 2 -6
BITMAP
FFFC
FFFC
3030
3030
3030
3030
3030
3030
3030
3030
3030
3030
3030
3030
3030
3030
3030
3030
3030
3030
3030
3030
3030
3030
ENDCHAR
STARTCHAR pi
ENCODING 185
SWIDTH 689 0
DWIDTH 20 0
BBX 14 14 3 0
BITMAP
FFFC
FFFC
3030
3030
3030
3030
3030
3030
3030
3030
3030
3030
3030
3018
ENDCHAR
STARTCHAR integral
ENCODING 186
SWIDTH 523 0
DWIDTH 10 0
BBX 9 25 0 -5
BITMAP
0700
0D80
1980
1800
1800
1800
1800
1800
1800
1800
1800
1800
1800
1800
1800
1800
1800
1800
1800
1800
1800
1800
D800
D800
7000
ENDCHAR
STARTCHAR ordfeminine
ENCODING 187
SWIDTH 333 0
DWIDTH 12 0
BBX 8 10 2 8
BITMAP
3E
7F
C3
0F
3F
73
C3
C7
FF
7B
ENDCHAR
STARTCHAR ordmasculine
ENCODING 188
SWIDTH 371 0
DWIDTH 12 0
BBX 8 10 2 8
BITMAP
3C
7E
E7
C3
C3
C3
C3
E7
7E
3C
ENDCHAR
STARTCHAR Omega
ENCODING 189
SWIDTH 803 0
DWIDTH 20 0
BBX 16 18 2 0
BITMAP
0FF0
3FFC
700E
6006
C003
C003
C003
C003
C003
C003
C003
C003
6006
6006
300C
1818
FC3F
FC3F
ENDCHAR
STARTCHAR ae
ENCODING 190
SWIDTH 928 0
DWIDTH 22 0
BBX 19 13 1 0
BITMAP
1F1F00
7FBF80
E1F1C0
C0E0C0
00C060
1FFFE0
7FFFE0
E0C000
C0C000
C1E000
E3F0E0
7F3FC0
3E1F80
ENDCHAR
STARTCHAR oslash
ENCODING 191
SWIDTH 606 0
DWIDTH 14 0
BBX 12 13 1 0
BITMAP
0F10
3FF0
70E0
60E0
C1B0
C330
C630
CC30
D830
7060
70E0
FFC0
8F00
ENDCHAR
STARTCHAR questiondown
ENCODING 192
SWIDTH 568 0
DWIDTH 16 0
BBX 11 18 2 0
BITMAP
0600
0600
0000
0000
0600
0600
0600
0600
0E00
1C00
3800
7000
E000
C060
C060
E0E0
7FC0
3F80
ENDCHAR
STARTCHAR exclamdown
ENCODING 193
SWIDTH 303 0
DWIDTH 8 0
BBX 2 18 3 0
BITMAP
C0
C0
00
00
C0
C0
C0
C0
C0
C0
C0
C0
C0
C0
C0
C0
C0
C0
ENDCHAR
STARTCHAR logicalnot
ENCODING 194
SWIDTH 667 0
DWIDTH 14 0
BBX 10 6 2 4
BITMAP
FFC0
FFC0
00C0
00C0
00C0
00C0
ENDCHAR
STARTCHAR radical
ENCODING 195
SWIDTH 898 0
DWIDTH 20 0
BBX 19 25 0 -4
BITMAP
000060
000060
000060
0000C0
0000C0
000180
000180
000180
000300
000300
000600
080600
180600
3C0C00
7C0C00
E61800
461800
031800
033000
01B000
01E000
00E000
00E000
004000
004000
ENDCHAR
STARTCHAR florin
ENCODING 196
SWIDTH 667 0
DWIDTH 10 0
BBX 10 22 0 -4
BITMAP
01C0
0780
0600
0C00
0C00
1C00
1800
FF00
FF00
3000
3000
3000
3000
7000
6000
6000
6000
6000
C000
C000
C000
C000
ENDCHAR
STARTCHAR approxequal
ENCODING 197
SWIDTH 667 0
DWIDTH 16 0
BBX 13 9 1 5
BITMAP
3C08
7E18
C3F0
81E0
0000
3C08
7E18
C3F0
81E0
ENDCHAR
STARTCHAR Delta
ENCODING 198
SWIDTH 758 0
DWIDTH 18 0
BBX 15 16 1 0
BITMAP
0100
0100
0380
0380
06C0
06C0
0C60
0C60
1830
1830
3018
3018
600C
600C
FFFE
FFFE
ENDCHAR
STARTCHAR guillemotleft
ENCODING 199
SWIDTH 534 0
DWIDTH 16 0
BBX 12 11 2 1
BITMAP
0630
0C60
18C0
3180
6300
C600
6300
3180
18C0
0C60
0630
ENDCHAR
STARTCHAR guillemotright
ENCODING 200
SWIDTH 534 0
DWIDTH 16 0
BBX 12 11 2 1
BITMAP
C600
6300
3180
18C0
0C60
0630
0C60
18C0
3180
6300
C600
ENDCHAR
STARTCHAR ellipsis
ENCODING 201
SWIDTH 1030 0
DWIDTH 20 0
BBX 17 3 2 0
BITMAP
E1C380
E1C380
E1C380
ENDCHAR
STARTCHAR nbspace
ENCODING 202
SWIDTH 667 0
DWIDTH 16 0
BBX 0 0 -1 -6
BITMAP
ENDCHAR
STARTCHAR Agrave
ENCODING 203
SWIDTH 727 0
DWIDTH 18 0
BBX 17 22 0 0
BITMAP
030000
018000
00C000
000000
008000
01C000
01C000
036000
036000
063000
063000
0C1800
0C1800
180C00
180C00
1FFC00
3FFE00
300600
600300
600300
C00180
C00180
ENDCHAR
STARTCHAR Atilde
ENCODING 204
SWIDTH 727 0
DWIDTH 18 0
BBX 17 22 0 0
BITMAP
071000
0FF000
08E000
000000
008000
01C000
01C000
036000
036000
063000
063000
0C1800
0C1800
180C00
180C00
1FFC00
3FFE00
300600
600300
600300
C00180
C00180
ENDCHAR
STARTCHAR Otilde
ENCODING 205
SWIDTH 735 0
DWIDTH 16 0
BBX 15 22 0 0
BITMAP
0E20
1FE0
11C0
0000
07C0
1FF0
3838
701C
600C
600C
C006
C006
C006
C006
C006
C006
600C
600C
701C
3838
1FF0
07C0
ENDCHAR
STARTCHAR OE
ENCODING 206
SWIDTH 1091 0
DWIDTH 24 0
BBX 21 18 1 0
BITMAP
073FF8
1FFFF8
38F000
707000
603000
C03000
C03000
C03000
C03FF0
C03FF0
C03000
C03000
C03000
603000
707000
38F000
1FFFF8
073FF8
ENDCHAR
STARTCHAR oe
ENCODING 207
SWIDTH 996 0
DWIDTH 22 0
BBX 21 13 0 0
BITMAP
0F03C0
3FCFF0
70FC30
607818
C03018
C03FF8
C03FF8
C03000
C03000
607818
70FC38
3FCFF0
0F03C0
ENDCHAR
STARTCHAR endash
ENCODING 208
SWIDTH 515 0
DWIDTH 12 0
BBX 8 2 2 6
BITMAP
FF
FF
ENDCHAR
STARTCHAR emdash
ENCODING 209
SWIDTH 1030 0
DWIDTH 18 0
BBX 14 2 2 6
BITMAP
FFFC
FFFC
ENDCHAR
STARTCHAR quotedblleft
ENCODING 210
SWIDTH 492 0
DWIDTH 14 0
BBX 7 6 3 13
BITMAP
22
66
CC
CC
EE
EE
ENDCHAR
STARTCHAR quotedblright
ENCODING 211
SWIDTH 492 0
DWIDTH 14 0
BBX 7 6 3 12
BITMAP
EE
EE
66
66
CC
88
ENDCHAR
STARTCHAR quoteleft
ENCODING 212
SWIDTH 303 0
DWIDTH 8 0
BBX 3 6 2 13
BITMAP
20
60
C0
C0
E0
E0
ENDCHAR
STARTCHAR quoteright
ENCODING 213
SWIDTH 303 0
DWIDTH 8 0
BBX 3 6 2 12
BITMAP
E0
E0
60
60
C0
80
ENDCHAR
STARTCHAR divide
ENCODING 214
SWIDTH 667 0
DWIDTH 14 0
BBX 12 12 1 3
BITMAP
0600
0600
0000
0000
0000
FFF0
FFF0
0000
0000
0000
0600
0600
ENDCHAR
STARTCHAR lozenge
ENCODING 215
SWIDTH 667 0
DWIDTH 18 0
BBX 15 17 2 1
BITMAP
0100
0380
06C0
0C60
0820
1830
3018
600C
C006
600C
3018
1830
0820
0C60
06C0
0380
0100
ENDCHAR
STARTCHAR ydieresis
ENCODING 216
SWIDTH 572 0
DWIDTH 14 0
BBX 12 23 1 -6
BITMAP
1980
1980
0000
0000
C030
C030
6060
6060
30C0
30C0
1980
1980
1980
0F00
0F00
0600
0600
0E00
0C00
1C00
1800
F800
F000
ENDCHAR
STARTCHAR Ydieresis
ENCODING 217
SWIDTH 610 0
DWIDTH 14 0
BBX 14 21 0 0
BITMAP
1860
1860
0000
C00C
C00C
6018
3030
3030
1860
0CC0
0CC0
0780
0300
0300
0300
0300
0300
0300
0300
0300
0300
ENDCHAR
STARTCHAR fraction
ENCODING 218
SWIDTH 102 0
DWIDTH 5 0
BBX 16 20 -5 -2
BITMAP
0003
0006
000C
000C
0018
0030
0060
0060
00C0
0180
0300
0300
0600
0C00
1800
1800
3000
6000
C000
8000
ENDCHAR
STARTCHAR currency
ENCODING 219
SWIDTH 744 0
DWIDTH 18 0
BBX 16 16 1 0
BITMAP
01F8
07FE
0F07
1C03
1800
3000
7FFE
FFFC
3000
3000
7FF8
FFF0
1C03
0F06
07FC
01F8
ENDCHAR
STARTCHAR guilsinglleft
ENCODING 220
SWIDTH 322 0
DWIDTH 10 0
BBX 7 11 1 1
BITMAP
06
0C
18
30
60
C0
60
30
18
0C
06
ENDCHAR
STARTCHAR guilsinglright
ENCODING 221
SWIDTH 322 0
DWIDTH 10 0
BBX 7 11 2 1
BITMAP
C0
60
30
18
0C
06
0C
18
30
60
C0
ENDCHAR
STARTCHAR fi
ENCODING 222
SWIDTH 599 0
DWIDTH 16 0
BBX 13 18 1 0
BITMAP
0780
0F80
1C00
1800
1800
FFF8
FFF8
1818
1818
1818
1818
1818
1818
1818
1818
1818
1818
1818
ENDCHAR
STARTCHAR fl
ENCODING 223
SWIDTH 599 0
DWIDTH 16 0
BBX 13 18 1 0
BITMAP
07F8
0FF8
1C18
1818
1818
FF98
FF98
1818
1818
1818
1818
1818
1818
1818
1818
1818
1818
1818
ENDCHAR
STARTCHAR daggerdbl
ENCODING 224
SWIDTH 667 0
DWIDTH 10 0
BBX 10 20 0 -2
BITMAP
0C00
0C00
0C00
FFC0
FFC0
0C00
0C00
0C00
0C00
0C00
0C00
0C00
0C00
0C00
0C00
FFC0
FFC0
0C00
0C00
0C00
ENDCHAR
STARTCHAR periodcentered
ENCODING 225
SWIDTH 667 0
DWIDTH 12 0
BBX 3 3 4 6
BITMAP
E0
E0
E0
ENDCHAR
STARTCHAR quotesinglbase
ENCODING 226
SWIDTH 303 0
DWIDTH 8 0
BBX 3 6 2 -4
BITMAP
E0
E0
60
60
C0
80
ENDCHAR
STARTCHAR quotedblbase
ENCODING 227
SWIDTH 492 0
DWIDTH 15 0
BBX 7 6 3 -4
BITMAP
EE
EE
66
66
CC
88
ENDCHAR
STARTCHAR perthousand
ENCODING 228
SWIDTH 1311 0
DWIDTH 25 0
BBX 23 18 1 0
BITMAP
380600
7C0C00
C61800
C61800
C63000
C66000
7CC000
38C000
018000
030000
063838
067C7C
0CC6C6
18C6C6
30C6C6
30C6C6
607C7C
C03838
ENDCHAR
STARTCHAR Acircumflex
ENCODING 229
SWIDTH 727 0
DWIDTH 18 0
BBX 17 22 0 0
BITMAP
008000
01C000
036000
000000
008000
01C000
01C000
036000
036000
063000
063000
0C1800
0C1800
180C00
180C00
1FFC00
3FFE00
300600
600300
600300
C00180
C00180
ENDCHAR
STARTCHAR Ecircumflex
ENCODING 230
SWIDTH 576 0
DWIDTH 14 0
BBX 11 22 1 0
BITMAP
0400
0E00
1B00
0000
FFE0
FFE0
C000
C000
C000
C000
C000
C000
FFC0
FFC0
C000
C000
C000
C000
C000
C000
FFE0
FFE0
ENDCHAR
STARTCHAR Aacute
ENCODING 231
SWIDTH 727 0
DWIDTH 18 0
BBX 17 22 0 0
BITMAP
006000
00C000
018000
000000
008000
01C000
01C000
036000
036000
063000
063000
0C1800
0C1800
180C00
180C00
1FFC00
3FFE00
300600
600300
600300
C00180
C00180
ENDCHAR
STARTCHAR Edieresis
ENCODING 232
SWIDTH 576 0
DWIDTH 14 0
BBX 11 21 1 0
BITMAP
3180
3180
0000
FFE0
FFE0
C000
C000
C000
C000
C000
C000
FFC0
FFC0
C000
C000
C000
C000
C000
C000
FFE0
FFE0
ENDCHAR
STARTCHAR Egrave
ENCODING 233
SWIDTH 576 0
DWIDTH 14 0
BBX 11 22 1 0
BITMAP
1800
0C00
0600
0000
FFE0
FFE0
C000
C000
C000
C000
C000
C000
FFC0
FFC0
C000
C000
C000
C000
C000
C000
FFE0
FFE0
ENDCHAR
STARTCHAR Iacute
ENCODING 234
SWIDTH 242 0
DWIDTH 10 0
BBX 4 22 3 0
BITMAP
30
60
C0
00
60
60
60
60
60
60
60
60
60
60
60
60
60
60
60
60
60
60
ENDCHAR
STARTCHAR Icircumflex
ENCODING 235
SWIDTH 242 0
DWIDTH 10 0
BBX 6 22 2 0
BITMAP
30
78
CC
00
30
30
30
30
30
30
30
30
30
30
30
30
30
30
30
30
30
30
ENDCHAR
STARTCHAR Idieresis
ENCODING 236
SWIDTH 242 0
DWIDTH 10 0
BBX 6 21 2 0
BITMAP
CC
CC
00
30
30
30
30
30
30
30
30
30
30
30
30
30
30
30
30
30
30
ENDCHAR
STARTCHAR Igrave
ENCODING 237
SWIDTH 242 0
DWIDTH 10 0
BBX 4 22 3 0
BITMAP
C0
60
30
00
60
60
60
60
60
60
60
60
60
60
60
60
60
60
60
60
60
60
ENDCHAR
STARTCHAR Oacute
ENCODING 238
SWIDTH 735 0
DWIDTH 16 0
BBX 15 22 0 0
BITMAP
00C0
0180
0300
0000
07C0
1FF0
3838
701C
600C
600C
C006
C006
C006
C006
C006
C006
600C
600C
701C
3838
1FF0
07C0
ENDCHAR
STARTCHAR Ocircumflex
ENCODING 239
SWIDTH 735 0
DWIDTH 16 0
BBX 15 22 0 0
BITMAP
0100
0380
06C0
0000
07C0
1FF0
3838
701C
600C
600C
C006
C006
C006
C006
C006
C006
600C
600C
701C
3838
1FF0
07C0
ENDCHAR
STARTCHAR apple
ENCODING 240
SWIDTH 790 0
DWIDTH 18 0
BBX 15 18 1 0
BITMAP
00C0
01C0
0180
1D38
3FFC
7FFE
FFFE
FFF8
FFF0
FFF0
FFF0
FFF0
FFF8
7FFE
7FFE
3FFC
3FFC
1C38
ENDCHAR
STARTCHAR Ograve
ENCODING 241
SWIDTH 735 0
DWIDTH 16 0
BBX 15 22 0 0
BITMAP
0600
0300
0180
0000
07C0
1FF0
3838
701C
600C
600C
C006
C006
C006
C006
C006
C006
600C
600C
701C
3838
1FF0
07C0
ENDCHAR
STARTCHAR Uacute
ENCODING 242
SWIDTH 667 0
DWIDTH 16 0
BBX 12 22 2 0
BITMAP
0300
0600
0C00
0000
C030
C030
C030
C030
C030
C030
C030
C030
C030
C030
C030
C030
C030
C030
6060
70E0
3FC0
0F00
ENDCHAR
STARTCHAR Ucircumflex
ENCODING 243
SWIDTH 667 0
DWIDTH 16 0
BBX 12 22 2 0
BITMAP
0600
0F00
1980
0000
C030
C030
C030
C030
C030
C030
C030
C030
C030
C030
C030
C030
C030
C030
6060
70E0
3FC0
0F00
ENDCHAR
STARTCHAR Ugrave
ENCODING 244
SWIDTH 667 0
DWIDTH 16 0
BBX 12 22 2 0
BITMAP
0C00
0600
0300
0000
C030
C030
C030
C030
C030
C030
C030
C030
C030
C030
C030
C030
C030
C030
6060
70E0
3FC0
0F00
ENDCHAR
STARTCHAR dotlessi
ENCODING 245
SWIDTH 235 0
DWIDTH 10 0
BBX 2 13 4 0
BITMAP
C0
C0
C0
C0
C0
C0
C0
C0
C0
C0
C0
C0
C0
ENDCHAR
STARTCHAR circumflex
ENCODING 246
SWIDTH 591 0
DWIDTH 11 0
BBX 7 4 2 15
BITMAP
10
38
6C
C6
ENDCHAR
STARTCHAR tilde
ENCODING 247
SWIDTH 591 0
DWIDTH 11 0
BBX 9 3 1 15
BITMAP
7080
FF80
8700
ENDCHAR
STARTCHAR macron
ENCODING 248
SWIDTH 591 0
DWIDTH 11 0
BBX 7 2 2 15
BITMAP
FE
FE
ENDCHAR
STARTCHAR breve
ENCODING 249
SWIDTH 591 0
DWIDTH 11 0
BBX 9 3 1 15
BITMAP
C180
7F00
3E00
ENDCHAR
STARTCHAR dotaccent
ENCODING 250
SWIDTH 591 0
DWIDTH 11 0
BBX 2 2 4 15
BITMAP
C0
C0
ENDCHAR
STARTCHAR ring
ENCODING 251
SWIDTH 591 0
DWIDTH 11 0
BBX 5 5 3 15
BITMAP
70
D8
88
D8
70
ENDCHAR
STARTCHAR cedilla
ENCODING 252
SWIDTH 591 0
DWIDTH 11 0
BBX 4 5 4 -5
BITMAP
40
E0
30
30
E0
ENDCHAR
STARTCHAR hungarumlaut
ENCODING 253
SWIDTH 591 0
DWIDTH 11 0
BBX 9 4 2 15
BITMAP
1980
3300
6600
CC00
ENDCHAR
STARTCHAR ogonek
ENCODING 254
SWIDTH 591 0
DWIDTH 11 0
BBX 4 5 4 -5
BITMAP
60
C0
C0
C0
70
ENDCHAR
STARTCHAR caron
ENCODING 255
SWIDTH 591 0
DWIDTH 11 0
BBX 7 4 2 15
BITMAP
C6
6C
38
10
ENDCHAR
ENDFONT
